<?xml version="1.0" encoding="UTF-8" standalone="no"?>
<!-- Created with Inkscape (http://www.inkscape.org/) -->

<svg
   xmlns:dc="http://purl.org/dc/elements/1.1/"
   xmlns:cc="http://creativecommons.org/ns#"
   xmlns:rdf="http://www.w3.org/1999/02/22-rdf-syntax-ns#"
   xmlns:svg="http://www.w3.org/2000/svg"
   xmlns="http://www.w3.org/2000/svg"
   xmlns:sodipodi="http://sodipodi.sourceforge.net/DTD/sodipodi-0.dtd"
   xmlns:inkscape="http://www.inkscape.org/namespaces/inkscape"
   width="19.339729mm"
   height="21.374283mm"
   viewBox="0 0 19.33973 21.374282"
   version="1.1"
   id="svg8"
   inkscape:version="0.92.1 r15371">
  <defs
     id="defs2" />
  <sodipodi:namedview
     id="base"
     pagecolor="#ffffff"
     bordercolor="#666666"
     borderopacity="1.0"
     inkscape:pageopacity="0.0"
     inkscape:pageshadow="2"
     inkscape:zoom="5.5714286"
     inkscape:cx="30.703535"
     inkscape:cy="33.091273"
     inkscape:document-units="mm"
     inkscape:current-layer="layer2"
     showgrid="false"
     inkscape:pagecheckerboard="true"
     inkscape:window-width="1920"
     inkscape:window-height="1027"
     inkscape:window-x="-8"
     inkscape:window-y="-8"
     inkscape:window-maximized="1"
     showborder="true"
     fit-margin-top="0"
     fit-margin-left="0"
     fit-margin-right="0"
     fit-margin-bottom="0"
     showguides="false" />
  <metadata
     id="metadata5">
    <rdf:RDF>
      <cc:Work
         rdf:about="">
        <dc:format>image/svg+xml</dc:format>
        <dc:type
           rdf:resource="http://purl.org/dc/dcmitype/StillImage" />
        <dc:title></dc:title>
      </cc:Work>
    </rdf:RDF>
  </metadata>
  <g
     inkscape:label="archer"
     inkscape:groupmode="layer"
     id="layer1"
     style="display:none"
     transform="translate(-146.21612,-132.91666)">
    <path
       id="path3703"
       style="display:inline;fill:#ffffff;fill-opacity:1;stroke:none;stroke-width:0.065;stroke-linecap:butt;stroke-linejoin:miter;stroke-miterlimit:4;stroke-dasharray:none;stroke-opacity:0.30622008"
       d="m 157.89399,150.62765 -1.25162,-2.40266 v -2.29091 c 0,0.94989 0.94727,2.14435 1.3522,2.39148 0.75227,0.45911 3.77353,1.61846 6.44265,-1.90646 2.71048,-3.57955 0.42889,-5.48692 0.0811,-6.48034 -0.73823,-2.10852 -0.063,-3.19864 0.0711,-3.37744 0.1341,-0.1788 0.79665,-0.39542 0.9729,0.15899 0.13816,0.43457 -0.0309,0.47205 -0.16408,1.17661 -0.0942,0.49833 0.69733,0.85997 0.96074,0.19794 0.2037,-0.51196 0.27915,-1.45322 -0.19461,-2.13113 -0.58535,-0.83759 -1.91646,-0.99234 -2.7199,0.40132 -0.59814,1.03755 0.29793,4.79848 0.29793,4.79848 l -4.07109,-4.07109 v 0.56697 l -0.29529,0.29529 c 0,0 1.813,1.77065 4.47666,4.47666 0.62848,2.72987 -5.46628,5.42772 -7.26372,1.47759 l -0.0241,-10.00568 -0.35832,0.28939 -0.35832,-0.28939 -0.0241,10.00568 c -1.79744,3.95013 -7.8922,1.25228 -7.26372,-1.47759 2.66366,-2.70601 4.47666,-4.47666 4.47666,-4.47666 l -0.29529,-0.29529 v -0.56697 l -4.07109,4.07109 c 0,0 0.89607,-3.76093 0.29793,-4.79848 -0.80344,-1.39366 -2.13455,-1.23891 -2.7199,-0.40132 -0.47376,0.67791 -0.39831,1.61917 -0.19461,2.13113 0.26341,0.66203 1.05496,0.30039 0.96074,-0.19794 -0.13322,-0.70456 -0.30224,-0.74204 -0.16408,-1.17661 0.17625,-0.55441 0.8388,-0.33779 0.9729,-0.15899 0.13411,0.1788 0.80933,1.26892 0.0711,3.37744 -0.34779,0.99342 -2.62938,2.90079 0.0811,6.48034 2.66912,3.52492 5.69038,2.36557 6.44265,1.90646 0.40493,-0.24713 1.3522,-1.44159 1.3522,-2.39148 v 2.29091 l -1.25162,2.40266 1.68745,3.7772 z m -2.3724,-10.26615 -2.22272,-2.11429 -2.99848,5.39991 3.52254,-3.28562 -0.10843,2.52089 z m -0.0631,-4.94632 v 4.27585 l -2.22061,-2.22061 v -4.39397 z m 1.43302,4.94632 2.22272,-2.11429 2.99848,5.39991 -3.52254,-3.28562 0.10843,2.52089 z m 0.0631,-4.94632 v 4.27585 l 2.22061,-2.22061 v -4.39397 z"
       inkscape:connector-curvature="0" />
  </g>
  <g
     inkscape:groupmode="layer"
     id="layer3"
     inkscape:label="__img"
     style="display:inline"
     transform="translate(-0.32076,0.15979183)" />
  <g
     inkscape:groupmode="layer"
     id="layer2"
     inkscape:label="zerk"
     style="display:inline"
     transform="translate(-146.21612,-132.91666)">
    <path
       id="path4595"
       style="display:inline;fill:#ffffff;fill-opacity:1;stroke:none;stroke-width:0.065;stroke-linecap:butt;stroke-linejoin:miter;stroke-miterlimit:4;stroke-dasharray:none;stroke-opacity:1"
       d="m 163.49392,140.77509 0.37374,-0.80947 1.23763,-0.70826 -0.36407,-3.40767 -2.9849,1.68374 0.14265,1.4188 -0.44163,0.77452 z m -5.52602,10.3084 c -0.55988,1.15871 0.15047,2.453 -0.39882,3.02304 -0.38652,0.40114 -1.23575,0.0818 -2.0114,-0.3288 -0.8329,-0.44093 -1.62931,-0.97886 -1.44949,-1.56237 0.25289,-0.82067 1.55234,-0.62975 2.22165,-1.90197 0.67076,-1.27496 -0.008,-2.92317 0.50902,-3.33179 0.51707,-0.40864 1.0477,0.0677 1.92215,0.50215 0.87446,0.43441 1.55879,0.6576 1.49712,1.29987 -0.0645,0.67195 -1.6922,1.06216 -2.29023,2.29987 z m 3.11716,-17.03431 c -3.27263,-1.68454 -5.60731,-1.36174 -9.35653,0.12599 -3.08601,1.22457 -4.01434,2.96909 -5.51241,3.02977 0.92715,1.23416 0.43773,3.10918 0.81207,5.91481 0.37775,2.83112 1.75357,6.00391 5.4292,7.97796 0,0 -0.0303,-3.7002 1.89314,-5.22004 2.69327,-2.12807 4.25838,-1.2993 4.25838,-1.2993 0.0553,0.23816 0.0846,0.719 -0.21099,0.98233 -0.44546,0.39689 -0.89096,0.17332 -0.68806,0.7879 0.13063,0.3957 2.06875,1.48192 2.79798,1.33681 0.6058,-0.12054 -0.22104,-1.15675 0.49187,-2.05188 0.39758,-0.0933 0.82536,0.16319 1.11556,0.43766 l 0.56408,1.20753 2.8765,-0.19439 -1.40347,-2.39399 -1.40021,0.24403 -1.04486,-0.57388 1.06976,-2.07932 c 0.41696,0.0714 1.01671,0.39543 1.23191,-0.004 0.13951,-0.259 0.0567,-0.4966 -0.33462,-0.71277 -1.46464,-0.80891 -1.54743,-0.82305 -2.56207,-1.35024 -0.64383,-0.33451 -1.06396,-0.33034 -1.20374,-0.0135 -0.154,0.34913 0.73488,1.01123 0.73488,1.01123 l -0.94457,1.82931 c 0,0 -2.07871,-1.55841 -1.52958,-4.56638 0.54916,-3.00798 2.91575,-4.42571 2.91575,-4.42571 z m -3.82166,1.90797 -0.0638,0.73088 c 0,0 -0.96495,0.22035 -1.43231,0.37777 -0.46734,0.15741 -1.37175,0.56675 -1.37175,0.56675 l -0.0505,-1.82162 c 0,0 0.8437,-0.0923 1.50529,-0.0676 0.66159,0.0247 1.41309,0.21376 1.41309,0.21376 z m -4.37262,0.46722 0.18808,1.62189 c -1.47275,0.70889 -1.75189,1.15082 -2.04685,1.48496 -0.0447,0.34998 -0.26856,0.81434 -0.11231,2.89022 l -1.42248,0.7139 c 0.001,0.0367 -0.23882,-1.02594 -0.28838,-2.39144 -0.0495,-1.3655 0.16928,-2.03312 0.16928,-2.03312 0,0 0.48508,-0.67943 1.59006,-1.36677 1.10497,-0.68736 1.92259,-0.91964 1.92259,-0.91964 z m 3.72041,2.12143 c -0.22906,2.72467 1.35118,4.58325 1.35118,4.58325 -1.86321,0.009 -3.05828,0.37582 -4.48747,1.50046 -1.05511,-1.33935 -0.86065,-3.58738 -0.86065,-3.58738 l 2.07999,1.07071 0.60241,0.89595 c 0.78545,0.0326 1.73428,-0.37023 1.73428,-0.37023 0,0 -0.1265,-0.86342 -0.69578,-1.60429 l -1.03282,-0.0249 -2.04783,-1.05414 c 1.36823,-1.47223 3.35668,-1.4095 3.35668,-1.4095 z m -6.62082,5.86162 1.52257,-0.86223 c 0,0 0.0385,0.70798 0.29,1.44189 0.25147,0.7339 0.59423,1.35672 0.59423,1.35672 l -0.59744,0.4922 c 0,0 -0.64335,-0.53266 -1.0461,-1.13829 -0.40274,-0.60564 -0.76326,-1.29029 -0.76326,-1.29029 z" />
  </g>
</svg>
