<?xml version="1.0" encoding="UTF-8" standalone="no"?>
<!-- Created with Inkscape (http://www.inkscape.org/) -->

<svg
   xmlns:dc="http://purl.org/dc/elements/1.1/"
   xmlns:cc="http://creativecommons.org/ns#"
   xmlns:rdf="http://www.w3.org/1999/02/22-rdf-syntax-ns#"
   xmlns:svg="http://www.w3.org/2000/svg"
   xmlns="http://www.w3.org/2000/svg"
   xmlns:xlink="http://www.w3.org/1999/xlink"
   xmlns:sodipodi="http://sodipodi.sourceforge.net/DTD/sodipodi-0.dtd"
   xmlns:inkscape="http://www.inkscape.org/namespaces/inkscape"
   width="18.260761mm"
   height="16.480984mm"
   viewBox="0 0 18.260762 16.480983"
   version="1.1"
   id="svg8"
   inkscape:version="0.92.1 r15371">
  <defs
     id="defs2" />
  <sodipodi:namedview
     id="base"
     pagecolor="#ffffff"
     bordercolor="#666666"
     borderopacity="1.0"
     inkscape:pageopacity="0.0"
     inkscape:pageshadow="2"
     inkscape:zoom="5.2477064"
     inkscape:cx="17.015072"
     inkscape:cy="-8.9112884"
     inkscape:document-units="mm"
     inkscape:current-layer="layer4"
     showgrid="false"
     inkscape:pagecheckerboard="true"
     inkscape:window-width="1920"
     inkscape:window-height="1027"
     inkscape:window-x="-8"
     inkscape:window-y="-8"
     inkscape:window-maximized="1"
     showborder="true"
     fit-margin-top="0"
     fit-margin-left="0"
     fit-margin-right="0"
     fit-margin-bottom="0"
     showguides="true"
     inkscape:guide-bbox="true">
    <sodipodi:guide
       position="8.9477557,14.880058"
       orientation="1,0"
       id="guide4656"
       inkscape:locked="false" />
    <sodipodi:guide
       position="8.9477557,3.0934732"
       orientation="1,0"
       id="guide4658"
       inkscape:locked="false" />
    <sodipodi:guide
       position="-1.9467469,7.7938292"
       orientation="1,0"
       id="guide4666"
       inkscape:locked="false" />
    <sodipodi:guide
       position="19.96406,-0.40825363"
       orientation="0,1"
       id="guide4668"
       inkscape:locked="false" />
  </sodipodi:namedview>
  <metadata
     id="metadata5">
    <rdf:RDF>
      <cc:Work
         rdf:about="">
        <dc:format>image/svg+xml</dc:format>
        <dc:type
           rdf:resource="http://purl.org/dc/dcmitype/StillImage" />
        <dc:title></dc:title>
      </cc:Work>
    </rdf:RDF>
  </metadata>
  <g
     inkscape:groupmode="layer"
     id="layer4"
     inkscape:label="brawler"
     style="display:inline"
     transform="translate(-0.54114789,-1.3100461)">
    <path
       id="path4670"
       transform="translate(-0.32076001,0.15979183)"
       style="display:inline;fill:#ffffff;fill-opacity:1;stroke:#000000;stroke-width:0;stroke-linecap:butt;stroke-linejoin:miter;stroke-miterlimit:4;stroke-dasharray:none;stroke-opacity:1"
       d="M 6.0435013,13.083568 C 3.8937993,12.783345 2.3904288,12.421321 2.3904288,12.421321 L 1.9075763,11.270238 c 0,0 2.0330535,0.539047 3.8979975,0.770233 1.015349,0.125867 2.501776,0.162334 3.49676,0.10022 l 0.50733,-0.242493 0.5073302,0.242493 c 0.994984,0.06211 2.481411,0.02565 3.49676,-0.10022 1.864944,-0.231186 3.997216,-0.770233 3.997216,-0.770233 l -0.565535,1.076669 c 0,0 -1.486834,0.43644 -3.636536,0.736661 -2.149702,0.300221 -3.60426,0.401615 -3.7992352,0.400359 -0.1949752,-0.0013 -1.6164605,-0.100144 -3.7661625,-0.400359 z M 9.6342688,3.2838487 c 0,0 -2.1221436,0.9153812 -3.1666786,1.2077073 -1.044536,0.292326 -2.943438,0.4635666 -2.943438,0.4635666 0,0 -0.236589,1.0792043 -0.892318,2.2843989 -0.655729,1.2051946 -1.76992518,2.3001043 -1.76992518,2.3001043 0,0 3.26277118,0.2900453 5.42687118,-0.8179843 2.1641,-1.1080296 0.987581,-3.2084152 0.409963,-2.7239328 -0.337449,0.283039 -0.207912,0.7677757 -0.280846,1.0361451 -0.147032,0.541023 -0.291318,0.752185 -0.977653,0.7194276 -1.511966,-0.072163 0.172222,-2.9283199 2.11742,-2.3273566 1.7532066,0.5416482 0.999142,2.1654945 0.464155,2.6983981 -0.396921,0.3953757 -1.257904,1.185631 -2.975506,1.5044906 -1.717602,0.3188597 -3.9126267,0.3434549 -3.9126267,0.3434549 l 0.120175,0.5089996 c 0.5399037,0.254937 1.9571097,0.721622 3.8478497,0.986089 1.89074,0.264468 4.0644536,0.254499 4.0644536,0.254499 l 0.468104,-0.22945 z m 0.3685872,0.016902 c 0,0 2.122144,0.9153812 3.166679,1.2077073 1.044536,0.292326 2.943438,0.4635666 2.943438,0.4635666 0,0 0.236589,1.0792043 0.892318,2.2843989 0.655729,1.2051946 1.769925,2.3001043 1.769925,2.3001043 0,0 -3.262771,0.2900453 -5.426871,-0.8179843 -2.1641,-1.1080296 -0.987581,-3.2084152 -0.409963,-2.7239328 0.337449,0.283039 0.207912,0.7677757 0.280846,1.0361451 0.147032,0.541023 0.291318,0.752185 0.977653,0.7194276 1.511966,-0.072163 -0.172222,-2.9283199 -2.11742,-2.3273566 -1.753207,0.5416482 -0.999142,2.1654945 -0.464155,2.6983981 0.396921,0.3953757 1.257904,1.185631 2.975506,1.5044906 1.717602,0.3188597 3.912627,0.3434549 3.912627,0.3434549 L 18.383264,10.49817 c -0.539904,0.254937 -1.95711,0.721622 -3.84785,0.986089 -1.89074,0.264468 -4.064454,0.254499 -4.064454,0.254499 l -0.468104,-0.22945 z m 2.886779,11.923193 c 0.0274,1.875839 -0.351062,2.32357 -1.702068,2.402529 -1.3510106,0.07896 -1.127111,-0.831925 -1.138414,-2.118113 z m 3.244288,-0.378797 c -0.02571,0.03428 -2.55e-4,0.889779 -0.179624,1.380738 -0.179369,0.490959 -0.837127,0.786689 -1.421235,0.875623 -0.795081,0.121057 -1.118734,-0.426209 -1.12535,-0.798023 -0.01068,-0.600439 -0.0074,-1.142727 -0.0074,-1.142727 z m -9.4717747,0.378797 c -0.027397,1.875839 0.3510623,2.32357 1.7020676,2.402529 1.3510053,0.07896 1.1271054,-0.831925 1.1384086,-2.118113 z m -0.04595,-1.018147 2.9360903,0.315481 -0.016536,0.736517 -2.9300783,-0.313759 z m -3.1983378,0.63935 c 0,0 0.063078,0.738257 0.3560899,1.380738 0.2930121,0.642481 0.6606609,0.786689 1.2447689,0.875623 0.7950811,0.121057 1.118734,-0.426209 1.12535,-0.798023 0.01068,-0.600439 0.0074,-1.142727 0.0074,-1.142727 z m -0.3489871,-1.200863 3.1054349,0.520479 -0.01654,0.74543 -2.7963855,-0.402888 z m 9.9053556,0.561512 -2.936089,0.315481 0.01654,0.736517 2.930077,-0.313759 z m 3.244287,-0.347603 -2.802397,0.324395 0.01654,0.727604 2.760734,-0.313759 z m 2.341957,-2.745052 0.562195,0.87063 -0.562191,2.585489 -1.918229,1.190626 0.04961,-1.91823 0.808409,-0.386193 z M 6.8881947,3.7102545 C 5.4922247,4.1820023 3.9340221,4.3557836 3.9340221,4.3557836 l 0.356169,-1.044765 c 0,0 1.4974826,-0.4114959 2.7040096,-0.8537167 1.206528,-0.4422208 2.8145867,-1.307047 2.8145867,-1.307047 0,0 1.6080586,0.8648262 2.8145866,1.307047 1.206527,0.4422208 2.70401,0.8537167 2.70401,0.8537167 l 0.356169,1.044765 c 0,0 -1.558203,-0.1737813 -2.954173,-0.6455291 -1.395969,-0.4717479 -2.9197162,-1.228832 -2.9197162,-1.228832 0,0 -1.5255001,0.7570841 -2.9214691,1.228832 z" />
  </g>
</svg>
