<?xml version="1.0" encoding="UTF-8" standalone="no"?>
<!-- Created with Inkscape (http://www.inkscape.org/) -->

<svg
   xmlns:dc="http://purl.org/dc/elements/1.1/"
   xmlns:cc="http://creativecommons.org/ns#"
   xmlns:rdf="http://www.w3.org/1999/02/22-rdf-syntax-ns#"
   xmlns:svg="http://www.w3.org/2000/svg"
   xmlns="http://www.w3.org/2000/svg"
   xmlns:sodipodi="http://sodipodi.sourceforge.net/DTD/sodipodi-0.dtd"
   xmlns:inkscape="http://www.inkscape.org/namespaces/inkscape"
   width="13.852581mm"
   height="13.915603mm"
   viewBox="0 0 13.852582 13.915602"
   version="1.1"
   id="svg8"
   inkscape:version="0.92.1 r15371">
  <defs
     id="defs2" />
  <sodipodi:namedview
     id="base"
     pagecolor="#ffffff"
     bordercolor="#666666"
     borderopacity="1.0"
     inkscape:pageopacity="0.0"
     inkscape:pageshadow="2"
     inkscape:zoom="12.836821"
     inkscape:cx="27.92292"
     inkscape:cy="28.839599"
     inkscape:document-units="mm"
     inkscape:current-layer="layer5"
     showgrid="false"
     inkscape:pagecheckerboard="true"
     inkscape:window-width="1920"
     inkscape:window-height="1027"
     inkscape:window-x="-8"
     inkscape:window-y="-8"
     inkscape:window-maximized="1"
     showborder="true"
     fit-margin-top="0"
     fit-margin-left="0"
     fit-margin-right="0"
     fit-margin-bottom="0"
     showguides="true"
     inkscape:guide-bbox="true">
    <sodipodi:guide
       position="6.9253907,8.1826789"
       orientation="1,0"
       id="guide4656"
       inkscape:locked="false" />
    <sodipodi:guide
       position="3.9200662,-0.27730374"
       orientation="0,1"
       id="guide4726"
       inkscape:locked="false" />
    <sodipodi:guide
       position="-0.063023387,8.3695296"
       orientation="1,0"
       id="guide4734"
       inkscape:locked="false" />
    <sodipodi:guide
       position="13.852581,-0.27730377"
       orientation="1,0"
       id="guide4736"
       inkscape:locked="false" />
    <sodipodi:guide
       position="-5.004071,7.6132464"
       orientation="0,1"
       id="guide4738"
       inkscape:locked="false" />
    <sodipodi:guide
       position="-0.92014381,6.3275657"
       orientation="0,1"
       id="guide4740"
       inkscape:locked="false" />
    <sodipodi:guide
       position="4.1721605,10.537539"
       orientation="0,1"
       id="guide4742"
       inkscape:locked="false" />
    <sodipodi:guide
       position="4.0965322,10.008142"
       orientation="0,1"
       id="guide4744"
       inkscape:locked="false" />
    <sodipodi:guide
       position="5.8864015,3.9074609"
       orientation="0,1"
       id="guide4746"
       inkscape:locked="false" />
    <sodipodi:guide
       position="4.1091366,3.4158773"
       orientation="0,1"
       id="guide4748"
       inkscape:locked="false" />
    <sodipodi:guide
       position="0.89493494,10.008142"
       orientation="1,0"
       id="guide4750"
       inkscape:locked="false" />
    <sodipodi:guide
       position="13.020669,6.667893"
       orientation="1,0"
       id="guide4752"
       inkscape:locked="false" />
    <sodipodi:guide
       position="2.2688488,9.6678143"
       orientation="1,0"
       id="guide4754"
       inkscape:locked="false" />
    <sodipodi:guide
       position="2.6343854,10.537539"
       orientation="1,0"
       id="guide4756"
       inkscape:locked="false" />
    <sodipodi:guide
       position="11.293823,9.6804193"
       orientation="1,0"
       id="guide4758"
       inkscape:locked="false" />
    <sodipodi:guide
       position="11.65936,9.3653013"
       orientation="1,0"
       id="guide4760"
       inkscape:locked="false" />
    <sodipodi:guide
       position="1.1974481,9.3653013"
       orientation="1,0"
       id="guide4762"
       inkscape:locked="false" />
    <sodipodi:guide
       position="12.655133,6.3275654"
       orientation="1,0"
       id="guide4764"
       inkscape:locked="false" />
  </sodipodi:namedview>
  <metadata
     id="metadata5">
    <rdf:RDF>
      <cc:Work
         rdf:about="">
        <dc:format>image/svg+xml</dc:format>
        <dc:type
           rdf:resource="http://purl.org/dc/dcmitype/StillImage" />
        <dc:title></dc:title>
      </cc:Work>
    </rdf:RDF>
  </metadata>
  <g
     inkscape:groupmode="layer"
     id="layer5"
     inkscape:label="gunner"
     transform="translate(-2.2562434,-1.3805383)">
    <path
       id="path4801"
       transform="translate(-0.86190788,-1.1502543)"
       style="display:inline;opacity:1;fill:#ffffff;fill-opacity:1;stroke:none;stroke-width:0.065;stroke-linecap:butt;stroke-linejoin:miter;stroke-miterlimit:4;stroke-dasharray:none;stroke-opacity:1"
       d="m 5.3870001,5.9088559 c 0,0 1.8070536,-2.3291819 4.6637439,-2.3570821 2.85669,-0.0279 4.726767,2.3570821 4.726767,2.3570821 h 1.361309 c 0,0 -2.031207,-3.3780632 -6.088076,-3.3780633 -4.0568697,0 -6.0376579,3.3780633 -6.0376579,3.3780633 z m 8.6846469,0.863422 c 0.796432,1.6000156 1.233027,2.0608709 2.899085,2.0608709 C 16.367442,8.134269 15.86356,7.3869766 15.773284,6.438253 h -1.36131 c -1.692047,-2.3401283 -4.36123,-2.1932201 -4.36123,-2.1932201 0,0 -2.6691833,-0.1469082 -4.3612303,2.1932201 h -1.36131 c -0.090276,0.9487236 -0.594158,1.696016 -1.197448,2.3948958 1.666058,0 2.102653,-0.4608553 2.899085,-2.0608709 1.380373,-2.2279905 4.0209033,-2.1238941 4.0209033,-2.1238941 0,0 2.64053,-0.1040964 4.020903,2.1238941 z M 5.3743957,13.068331 c 0,0 1.8070536,2.329182 4.6637443,2.357082 2.85669,0.0279 4.726767,-2.357082 4.726767,-2.357082 h 1.361309 c 0,0 -2.031207,3.378064 -6.088076,3.378064 -4.0568701,0 -6.0376583,-3.378064 -6.0376583,-3.378064 z m 8.6846473,-0.863422 c 0.796432,-1.600015 1.233027,-2.060871 2.899085,-2.060871 -0.60329,0.69888 -1.107172,1.446173 -1.197448,2.394896 h -1.36131 c -1.692047,2.340129 -4.36123,2.19322 -4.36123,2.19322 0,0 -2.6691837,0.146909 -4.3612307,-2.19322 h -1.36131 c -0.090276,-0.948723 -0.594158,-1.696016 -1.197448,-2.394896 1.666058,0 2.102653,0.460856 2.899085,2.060871 1.380373,2.227991 4.0209037,2.123894 4.0209037,2.123894 0,0 2.64053,0.104097 4.020903,-2.123894 z m -2.00365,-3.3615934 c 0.399386,-0.347086 0.636708,-0.9115897 0.715493,-1.6836524 0.66565,0.8334491 0.90724,1.6568443 0.821421,2.6984137 -0.464243,0.3802271 -1.12851,0.6059681 -1.694891,0.6101821 C 12.18514,9.8985666 12.21165,9.3958618 12.05539,8.8433154 Z M 8.0210284,10.114918 C 7.6267667,10.467814 7.3977358,11.035732 7.3302637,11.808866 6.6524822,10.985253 6.3988619,10.165483 6.4694207,9.1227687 6.928046,8.7357852 7.5889368,8.5003419 8.1551957,8.4878355 7.8758439,9.0616795 7.8566976,9.5647186 8.0210314,10.114918 Z m 3.5527166,0.827346 c 0.497144,0.181179 1.105944,0.11524 1.819487,-0.189957 -0.406514,0.986141 -1.009717,1.596461 -1.962421,2.026099 -0.557561,-0.221855 -1.076911,-0.69354 -1.355046,-1.186943 0.637763,-0.02436 1.090354,-0.244767 1.497979,-0.649202 z M 8.5064919,8.0293575 C 8.0067487,7.8554757 7.3989795,7.9303236 6.6899814,8.2459348 7.0820124,7.2539483 7.6762151,6.6348608 8.6225253,6.1913198 9.1832749,6.4049862 9.7094749,6.8690168 9.9948032,7.3582938 9.3574668,7.3919947 8.9081527,7.6190008 8.5064934,8.0293602 Z m 1.0499058,3.5132285 c 0.094361,0.520648 0.4584173,1.013038 1.0818953,1.475167 -1.056536,0.146486 -1.8878026,-0.06645 -2.7393772,-0.672296 -0.089719,-0.593333 0.05555,-1.279705 0.3412563,-1.768763 0.3427672,0.538373 0.7613916,0.817962 1.3162276,0.96589 z M 10.524136,7.4247547 C 10.422163,6.905544 10.050935,6.4185381 9.4207571,5.9655869 c 1.0542769,-0.1619399 1.8885759,0.038798 2.7489289,0.632114 0.0984,0.5919556 -0.03681,1.280382 -0.31532,1.7735693 C 11.503748,7.8379776 11.081078,7.5645459 10.524134,7.4247574 Z" />
  </g>
</svg>
