<?xml version="1.0" encoding="UTF-8" standalone="no"?>
<!-- Created with Inkscape (http://www.inkscape.org/) -->

<svg
   xmlns:dc="http://purl.org/dc/elements/1.1/"
   xmlns:cc="http://creativecommons.org/ns#"
   xmlns:rdf="http://www.w3.org/1999/02/22-rdf-syntax-ns#"
   xmlns:svg="http://www.w3.org/2000/svg"
   xmlns="http://www.w3.org/2000/svg"
   xmlns:sodipodi="http://sodipodi.sourceforge.net/DTD/sodipodi-0.dtd"
   xmlns:inkscape="http://www.inkscape.org/namespaces/inkscape"
   width="20.990618mm"
   height="20.807636mm"
   viewBox="0 0 20.990618 20.807637"
   version="1.1"
   id="svg4871"
   inkscape:version="0.92.1 r15371">
  <defs
     id="defs4865" />
  <sodipodi:namedview
     id="base"
     pagecolor="#1e1e1e"
     bordercolor="#666666"
     borderopacity="1.0"
     inkscape:pageopacity="0"
     inkscape:pageshadow="2"
     inkscape:zoom="3.6329199"
     inkscape:cx="-2.0212419"
     inkscape:cy="50.148741"
     inkscape:document-units="mm"
     inkscape:current-layer="layer7"
     showgrid="false"
     inkscape:pagecheckerboard="false"
     fit-margin-top="0"
     fit-margin-left="0"
     fit-margin-right="0"
     fit-margin-bottom="0"
     showguides="false"
     inkscape:guide-bbox="true"
     inkscape:window-width="1920"
     inkscape:window-height="1027"
     inkscape:window-x="-8"
     inkscape:window-y="-8"
     inkscape:window-maximized="1">
    <sodipodi:guide
       position="5.9044445,18.286661"
       orientation="1,0"
       id="guide5438"
       inkscape:locked="false" />
    <sodipodi:guide
       position="10.479808,12.072703"
       orientation="1,0"
       id="guide5488"
       inkscape:locked="false" />
  </sodipodi:namedview>
  <metadata
     id="metadata4868">
    <rdf:RDF>
      <cc:Work
         rdf:about="">
        <dc:format>image/svg+xml</dc:format>
        <dc:type
           rdf:resource="http://purl.org/dc/dcmitype/StillImage" />
        <dc:title></dc:title>
      </cc:Work>
    </rdf:RDF>
  </metadata>
  <g
     inkscape:groupmode="layer"
     id="layer7"
     inkscape:label="Livello 2"
     style="display:inline"
     transform="translate(-7.3719692,-16.519575)">
    <path
       style="fill:#ffffff;fill-opacity:1;stroke:none;stroke-width:0.24566928;stroke-linecap:butt;stroke-linejoin:miter;stroke-miterlimit:4;stroke-dasharray:none;stroke-opacity:1"
       d="m 41.576172,11.115234 c -0.464129,-0.01401 -0.95007,0.0083 -1.458984,0.07227 -8.142641,1.023005 -9.421834,9.693116 -8.1875,12.9375 1.234332,3.244384 4.865903,3.725 6.9375,1.5 2.071595,-2.225 0.877345,-6.002807 -2.5625,-7.0625 1.908494,-1.879729 6.461525,-3.840654 8.1875,0.6875 1.262179,3.311376 -1.815323,7.446347 -6.125,11.625 -4.309679,4.178653 -13.856238,11.307421 -19.125,6.6875 -3.607737,-3.163442 0.811156,-10.267049 4.992187,-9.330078 -1.221619,2.684931 0.155147,5.871766 1.9375,6.75 1.782342,0.878234 5.907569,1.132106 7.125,-2 2.90479,-7.473207 -5.931713,-9.944993 -10.646484,-9.445313 -7.938327,0.841323 -11.409019,7.526136 -11.72461,11.708985 -0.525105,6.95966 5.018153,14.612509 11.546875,21.279297 l 15.091797,15.013671 c -6.388463,4.664618 -8.560596,6.823574 -13.896484,8.66211 -5.415459,1.865956 -13.079542,0.512856 -12.707031,5.568359 0.445291,6.04303 9.413949,4.428494 16.423828,0.34375 7.009878,-4.084754 13.980468,-10.685547 13.980468,-10.685547 0.921275,0 3.70527,4.386129 2.597657,6.501954 0,0 -2.962733,0.226551 -3.791016,1.277343 -0.661708,0.839464 -1.022253,2.315044 -0.396484,3.181641 0.566543,0.784588 1.845517,1.695268 5.832031,0.707031 3.986517,-0.988237 4.951172,-3.888672 4.951172,-3.888672 0,0 0.962702,2.900435 4.949218,3.888672 3.986514,0.988237 5.267441,0.07756 5.833985,-0.707031 0.625769,-0.866597 0.263271,-2.342177 -0.398438,-3.181641 -0.828283,-1.050792 -3.791015,-1.277343 -3.791015,-1.277343 -1.107613,-2.115825 1.676381,-6.501954 2.597656,-6.501954 0,0 6.97059,6.600793 13.980469,10.685547 7.009878,4.084744 15.980488,5.69928 16.425781,-0.34375 0.37251,-5.055503 -7.293526,-3.702403 -12.708984,-5.568359 -5.335888,-1.838536 -7.508021,-3.997492 -13.896485,-8.66211 L 78.642578,56.525391 C 85.1713,49.858603 90.716511,42.205754 90.191406,35.246094 89.875816,31.063245 86.403171,24.378432 78.464844,23.537109 c -4.714772,-0.49968 -13.54932,1.972106 -10.644532,9.445313 1.217432,3.132106 5.342659,2.878234 7.125,2 1.782354,-0.878234 3.159119,-4.065069 1.9375,-6.75 C 81.063843,27.295451 85.482737,34.399058 81.875,37.5625 76.606237,42.182421 67.059678,35.053653 62.75,30.875 58.440322,26.696347 55.362819,22.561376 56.625,19.25 c 1.725974,-4.528154 6.279005,-2.567229 8.1875,-0.6875 -3.439846,1.059693 -4.634097,4.8375 -2.5625,7.0625 2.071597,2.225 5.703167,1.744384 6.9375,-1.5 C 70.421833,20.880616 69.142641,12.210505 61,11.1875 52.857348,10.164495 50.558594,19.75 50.558594,19.75 c 0,0 -2.020485,-8.4246 -8.982422,-8.634766 z M 50.5,23.958984 c 1.752574,5.994917 6.576327,5.315325 5.341797,13.050782 3.137828,-1.572545 17.852906,0.274733 22.5625,9.589843 2.211443,4.374021 -17.095454,19.807058 -17.931641,21.644532 -1.517208,-0.222388 -2.540595,-1.102897 -2.957031,-2.792969 0,0 5.017873,-0.914942 5.9375,-3.16211 1.430631,-3.495835 -2.869652,-3.550607 -3.455078,-6.277343 9.881907,-1.031486 9.313414,-9.02289 15.570312,-11.09375 0,0 -7.063082,-10.207569 -18.490234,0.535156 -0.337625,0.317329 -2.187386,0.899764 -3.076172,0.285156 -0.888782,-0.614608 -0.111328,-2.986328 -0.111328,-2.986328 1.743375,-0.284636 2.953022,-0.266773 3.708984,-0.408203 0.755963,-0.14143 1.057912,-0.441445 0.986329,-1.367188 -0.292838,-3.787263 -6.693466,-2.308853 -8.183594,1.824219 -1.29549,-4.25472 -7.744086,-5.56282 -7.988282,-1.824219 -0.121019,1.853065 1.257395,1.133861 4.744141,1.703126 0,0 0.728611,2.443985 -0.160156,3.058593 -0.888786,0.614608 -2.738539,0.03217 -3.076172,-0.285156 C 32.494723,34.7104 25.431641,44.917969 25.431641,44.917969 c 6.256898,2.07086 5.688405,10.062264 15.570312,11.09375 -0.585426,2.726736 -4.885709,2.781508 -3.455078,6.277343 0.919627,2.247168 5.9375,3.16211 5.9375,3.16211 -0.416436,1.690072 -1.439823,2.570589 -2.957031,2.792969 C 39.691157,66.406667 20.38426,50.97363 22.595703,46.599609 27.305297,37.284484 42.020375,35.437221 45.158203,37.009766 43.923673,29.274309 48.747426,29.953901 50.5,23.958984 Z m 0,38.371094 c 1.774556,3.450331 4.110202,6.114916 6.316406,8.960938 l -1.507812,1.265625 C 53.743801,71.157203 52.314888,69.485189 50.5,68.585938 c -1.814888,0.899251 -3.243801,2.571265 -4.808594,3.970703 L 44.183594,71.291016 C 46.389798,68.444994 48.725444,65.780409 50.5,62.330078 Z"
       transform="matrix(0.26458333,0,0,0.26458333,4.4903183,13.579769)"
       id="path5502"
       inkscape:connector-curvature="0" />
  </g>
</svg>
