<?xml version="1.0" encoding="UTF-8" standalone="no"?>
<!-- Created with Inkscape (http://www.inkscape.org/) -->

<svg
   xmlns:dc="http://purl.org/dc/elements/1.1/"
   xmlns:cc="http://creativecommons.org/ns#"
   xmlns:rdf="http://www.w3.org/1999/02/22-rdf-syntax-ns#"
   xmlns:svg="http://www.w3.org/2000/svg"
   xmlns="http://www.w3.org/2000/svg"
   xmlns:sodipodi="http://sodipodi.sourceforge.net/DTD/sodipodi-0.dtd"
   xmlns:inkscape="http://www.inkscape.org/namespaces/inkscape"
   width="19.291328mm"
   height="20.648352mm"
   viewBox="0 0 19.291328 20.648351"
   version="1.1"
   id="svg8"
   inkscape:version="0.92.1 r15371">
  <defs
     id="defs2" />
  <sodipodi:namedview
     id="base"
     pagecolor="#3e3e3e"
     bordercolor="#666666"
     borderopacity="1.0"
     inkscape:pageopacity="0"
     inkscape:pageshadow="2"
     inkscape:zoom="3.1256964"
     inkscape:cx="-60.882343"
     inkscape:cy="-5.8327321"
     inkscape:document-units="mm"
     inkscape:current-layer="layer2"
     showgrid="false"
     fit-margin-top="0"
     fit-margin-left="0"
     fit-margin-right="0"
     fit-margin-bottom="0"
     showguides="false"
     inkscape:guide-bbox="true"
     inkscape:window-width="1920"
     inkscape:window-height="1027"
     inkscape:window-x="-8"
     inkscape:window-y="-8"
     inkscape:window-maximized="1">
    <sodipodi:guide
       position="9.6456857,13.56825"
       orientation="1,0"
       id="guide4514"
       inkscape:locked="false" />
    <sodipodi:guide
       position="6.8086618,14.505702"
       orientation="0,1"
       id="guide4516"
       inkscape:locked="false" />
    <sodipodi:guide
       position="19.291568,12.754148"
       orientation="1,0"
       id="guide4531"
       inkscape:locked="false" />
    <sodipodi:guide
       position="7.0306898,18.847581"
       orientation="0,1"
       id="guide4533"
       inkscape:locked="false" />
    <sodipodi:guide
       position="3.0341871,10.139152"
       orientation="0,1"
       id="guide4535"
       inkscape:locked="false" />
    <sodipodi:guide
       position="9.6456857,20.648474"
       orientation="0,1"
       id="guide4537"
       inkscape:locked="false" />
    <sodipodi:guide
       position="14.012236,15.78853"
       orientation="1,0"
       id="guide4541"
       inkscape:locked="false" />
    <sodipodi:guide
       position="17.688032,14.505702"
       orientation="1,0"
       id="guide4543"
       inkscape:locked="false" />
    <sodipodi:guide
       position="10.125043,3.1550269"
       orientation="1,0"
       id="guide4547"
       inkscape:locked="false" />
    <sodipodi:guide
       position="12.010476,13.337864"
       orientation="1,0"
       id="guide4551"
       inkscape:locked="false" />
    <sodipodi:guide
       position="9.1663287,4.4643556"
       orientation="1,0"
       id="guide4557"
       inkscape:locked="false" />
    <sodipodi:guide
       position="10.125043,3.1550269"
       orientation="0,1"
       id="guide4559"
       inkscape:locked="false" />
    <sodipodi:guide
       position="7.0499898,4.0902616"
       orientation="0,1"
       id="guide4561"
       inkscape:locked="false" />
    <sodipodi:guide
       position="6.6534508,17.647426"
       orientation="0,1"
       id="guide4563"
       inkscape:locked="false" />
    <sodipodi:guide
       position="6.5786318,18.522806"
       orientation="0,1"
       id="guide4565"
       inkscape:locked="false" />
  </sodipodi:namedview>
  <metadata
     id="metadata5">
    <rdf:RDF>
      <cc:Work
         rdf:about="">
        <dc:format>image/svg+xml</dc:format>
        <dc:type
           rdf:resource="http://purl.org/dc/dcmitype/StillImage" />
        <dc:title></dc:title>
      </cc:Work>
    </rdf:RDF>
  </metadata>
  <g
     inkscape:groupmode="layer"
     id="layer2"
     inkscape:label="Livello 2"
     style="display:inline;opacity:1"
     transform="translate(-6.9124439,-7.0214035)">
    <path
       id="path4567"
       style="opacity:1;fill:#ffffff;fill-opacity:1;stroke:none;stroke-width:0.05989563;stroke-miterlimit:4;stroke-dasharray:none;stroke-opacity:1"
       d="m 17.799723,13.164053 a 1.2415929,1.2415929 0 0 1 -1.241593,1.241593 1.2415929,1.2415929 0 0 1 -1.241592,-1.241593 1.2415929,1.2415929 0 0 1 1.241592,-1.241593 1.2415929,1.2415929 0 0 1 1.241593,1.241593 z M 12.191708,7.0214036 v 1.8009238 c 5.460431,2.0603766 -3.1035431,6.5913916 -3.6757443,0 H 6.912444 v 8.7085116 h 1.6035197 c 0.662754,-2.7189 3.2051293,-4.078979 5.3531613,-1.899625 0.0307,2.969458 0.199298,6.037776 -1.208711,8.535396 0.793746,1.512381 1.68291,2.959829 3.897953,3.503145 2.215043,-0.543316 3.103689,-1.990764 3.897436,-3.503145 -1.40801,-2.49762 -1.239412,-5.565938 -1.208711,-8.535396 2.148032,-2.179354 4.690407,-0.819275 5.353161,1.899625 h 1.60352 V 8.8223274 h -1.60352 c -0.572201,6.5913916 -9.136175,2.0603766 -3.675744,0 V 7.0214036 h -4.366142 z m 4.365108,2.3445597 c 0.240876,0 0.480602,0.2186006 0.480591,0.6562907 0.02991,0.457203 -0.01689,1.286013 0,1.720825 0.774631,0.254318 1.423253,0.691411 1.885673,1.421102 -0.444849,0.743852 -1.105078,1.200869 -1.885673,1.452108 v 8.963277 c 0,0.935235 -0.958598,0.935235 -0.958598,0 v -8.963277 c -0.780595,-0.251239 -1.440824,-0.708256 -1.885673,-1.452108 0.462421,-0.729691 1.111042,-1.166784 1.885673,-1.421102 0.01688,-0.434812 -0.03971,-1.263622 -0.0098,-1.720825 0.0048,-0.4376901 0.24695,-0.6562907 0.487825,-0.6562907 z" />
  </g>
</svg>
