<?xml version="1.0" encoding="UTF-8" standalone="no"?>
<!-- Created with Inkscape (http://www.inkscape.org/) -->

<svg
   xmlns:dc="http://purl.org/dc/elements/1.1/"
   xmlns:cc="http://creativecommons.org/ns#"
   xmlns:rdf="http://www.w3.org/1999/02/22-rdf-syntax-ns#"
   xmlns:svg="http://www.w3.org/2000/svg"
   xmlns="http://www.w3.org/2000/svg"
   xmlns:sodipodi="http://sodipodi.sourceforge.net/DTD/sodipodi-0.dtd"
   xmlns:inkscape="http://www.inkscape.org/namespaces/inkscape"
   width="24.913008mm"
   height="19.707191mm"
   viewBox="0 0 24.913007 19.707191"
   version="1.1"
   id="svg8"
   inkscape:version="0.92.1 r15371">
  <defs
     id="defs2" />
  <sodipodi:namedview
     id="base"
     pagecolor="#3e3e3e"
     bordercolor="#666666"
     borderopacity="1.0"
     inkscape:pageopacity="0"
     inkscape:pageshadow="2"
     inkscape:zoom="6.1544142"
     inkscape:cx="-33.473286"
     inkscape:cy="29.050609"
     inkscape:document-units="mm"
     inkscape:current-layer="layer2"
     showgrid="false"
     fit-margin-top="0"
     fit-margin-left="0"
     fit-margin-right="0"
     fit-margin-bottom="0"
     showguides="true"
     inkscape:guide-bbox="true"
     inkscape:window-width="1920"
     inkscape:window-height="1027"
     inkscape:window-x="-8"
     inkscape:window-y="-8"
     inkscape:window-maximized="1"
     inkscape:lockguides="false">
    <sodipodi:guide
       position="7.4053976,36.561921"
       orientation="0,1"
       id="guide4516"
       inkscape:locked="false" />
    <sodipodi:guide
       position="12.461628,10.025638"
       orientation="1,0"
       id="guide4531"
       inkscape:locked="false" />
    <sodipodi:guide
       position="7.6274256,40.9038"
       orientation="0,1"
       id="guide4533"
       inkscape:locked="false" />
    <sodipodi:guide
       position="3.6309228,32.19537"
       orientation="0,1"
       id="guide4535"
       inkscape:locked="false" />
    <sodipodi:guide
       position="10.242422,42.704693"
       orientation="0,1"
       id="guide4537"
       inkscape:locked="false" />
    <sodipodi:guide
       position="14.616409,13.227883"
       orientation="1,0"
       id="guide4541"
       inkscape:locked="false" />
    <sodipodi:guide
       position="10.721779,25.211245"
       orientation="0,1"
       id="guide4559"
       inkscape:locked="false" />
    <sodipodi:guide
       position="7.6467256,26.14648"
       orientation="0,1"
       id="guide4561"
       inkscape:locked="false" />
    <sodipodi:guide
       position="7.2501866,39.703645"
       orientation="0,1"
       id="guide4563"
       inkscape:locked="false" />
    <sodipodi:guide
       position="7.1753676,40.579025"
       orientation="0,1"
       id="guide4565"
       inkscape:locked="false" />
    <sodipodi:guide
       position="14.859571,16.957599"
       orientation="1,0"
       id="guide4619"
       inkscape:locked="false" />
  </sodipodi:namedview>
  <metadata
     id="metadata5">
    <rdf:RDF>
      <cc:Work
         rdf:about="">
        <dc:format>image/svg+xml</dc:format>
        <dc:type
           rdf:resource="http://purl.org/dc/dcmitype/StillImage" />
        <dc:title></dc:title>
      </cc:Work>
    </rdf:RDF>
  </metadata>
  <g
     inkscape:groupmode="layer"
     id="layer2"
     inkscape:label="Livello 2"
     style="display:inline;opacity:1"
     transform="translate(-6.3157083,-30.018782)">
    <path
       id="path4628"
       style="fill:#ffffff;fill-opacity:1;stroke:#000000;stroke-width:0;stroke-linecap:butt;stroke-linejoin:miter;stroke-miterlimit:4;stroke-dasharray:none;stroke-opacity:1"
       d="m 9.8292299,39.413531 c -0.488878,-1.000613 -0.695329,-1.586847 -0.793752,-3.034934 l -2.719768,-0.793753 z m 6.5399171,-5.02533 c -3.702011,-2.19458 -5.479907,-0.291187 -5.085078,2.501225 0.348788,2.466798 3.021221,5.918607 5.085078,7.86866 -2.812481,-1.26895 -5.574549,-2.547725 -8.5405661,-4.69862 1.313754,2.674911 3.8217041,5.518683 6.1511161,8.115467 -0.233425,-0.967877 -0.693808,-2.144082 -0.734234,-3.536557 2.17749,0.223925 3.473163,1.510027 3.647816,2.416261 0.187134,0.970993 -0.816043,1.22782 -1.019319,0.522748 -0.17416,-0.60408 0.05344,-1.238356 0.05344,-1.238356 -1.373872,0.14591 -1.68808,2.975664 -0.09222,3.341992 1.175051,0.269732 2.216064,-0.722689 2.454544,-1.686273 0.81547,-3.29493 -3.015563,-5.864388 -4.734918,-9.015237 -1.570216,-2.87754 -1.583729,-5.271741 2.814343,-3.349318 z m 0,-1.619826 c -0.981864,-0.942368 -2.068746,-1.009579 -3.168575,-0.968904 l 0.149637,-1.780687 -2.214636,2.902969 -1.4065941,-1.900397 C 9.0652799,37.634553 8.5929719,39.770712 15.400244,44.05479 8.3523119,37.864706 10.201456,30.465955 16.369147,33.939289 v -1.170914 m 11.346048,6.645156 c 0.488878,-1.000613 0.695329,-1.586847 0.793752,-3.034934 l 2.719768,-0.793753 z m -6.539916,-5.02533 c 3.702011,-2.19458 5.479907,-0.291187 5.085078,2.501225 -0.348788,2.466798 -3.021221,5.918607 -5.085078,7.86866 2.812481,-1.26895 5.574549,-2.547725 8.540565,-4.69862 -1.313754,2.674911 -3.821703,5.518683 -6.151115,8.115467 0.233425,-0.967877 0.693808,-2.144082 0.734234,-3.536557 -2.17749,0.223925 -3.473163,1.510027 -3.647816,2.416261 -0.187134,0.970993 0.816043,1.22782 1.019319,0.522748 0.17416,-0.60408 -0.05344,-1.238356 -0.05344,-1.238356 1.373872,0.14591 1.68808,2.975664 0.09222,3.341992 -1.175051,0.269732 -2.216064,-0.722689 -2.454544,-1.686273 -0.81547,-3.29493 3.015563,-5.864388 4.734918,-9.015237 1.570216,-2.87754 1.583729,-5.271741 -2.814343,-3.349318 z m 0,-1.619826 c 0.981864,-0.942368 2.068746,-1.009579 3.168575,-0.968904 l -0.149637,-1.780687 2.214636,2.902969 1.406593,-1.900397 c 0.663699,6.613197 1.136007,8.749356 -5.671264,13.033434 7.047931,-6.190084 5.198788,-13.588835 -0.968903,-10.115501 v -1.170914 m -4.552793,-2.016477 v 5.327324 c 0.334916,0.0158 0.513822,0.217018 0.632003,0.463537 -2.097186,3.225327 -1.248983,5.409955 0.388606,7.618657 -0.179315,-1.70507 -0.195353,-3.604969 1.134298,-5.253943 1.329651,1.648974 1.313614,3.548873 1.134298,5.253943 1.63759,-2.208702 2.485793,-4.39333 0.388607,-7.618657 0.118181,-0.246519 0.297086,-0.447736 0.632002,-0.463537 v -5.327324 l -2.154907,3.621485 z m 2.154907,5.55625 a 0.42725326,0.42725326 0 0 1 0.427364,0.427364 0.42725326,0.42725326 0 0 1 -0.427364,0.426848 0.42725326,0.42725326 0 0 1 -0.427364,-0.426848 0.42725326,0.42725326 0 0 1 0.427364,-0.427364 z m -0.812353,1.234033 c 0.263937,-0.03549 0.532662,0.24388 0.301273,0.552938 -0.840776,1.122867 -1.182972,1.693451 -1.333252,2.696993 -0.06697,-1.066208 0.02679,-2.066656 0.788583,-3.099035 0.06821,-0.09244 0.155417,-0.139064 0.243396,-0.150896 z m 1.621606,0 c 0.08798,0.01183 0.175183,0.05845 0.243396,0.150896 0.761784,1.032379 0.855557,2.032827 0.788582,3.099035 -0.15028,-1.003542 -0.492475,-1.574126 -1.333251,-2.696993 -0.231389,-0.309022 0.03734,-0.588422 0.301273,-0.552938 z"
       inkscape:connector-curvature="0" />
  </g>
</svg>
