<?xml version="1.0" encoding="UTF-8" standalone="no"?>
<!-- Created with Inkscape (http://www.inkscape.org/) -->

<svg
   xmlns:dc="http://purl.org/dc/elements/1.1/"
   xmlns:cc="http://creativecommons.org/ns#"
   xmlns:rdf="http://www.w3.org/1999/02/22-rdf-syntax-ns#"
   xmlns:svg="http://www.w3.org/2000/svg"
   xmlns="http://www.w3.org/2000/svg"
   xmlns:sodipodi="http://sodipodi.sourceforge.net/DTD/sodipodi-0.dtd"
   xmlns:inkscape="http://www.inkscape.org/namespaces/inkscape"
   width="22.400185mm"
   height="22.400183mm"
   viewBox="0 0 22.400185 22.400182"
   version="1.1"
   id="svg8"
   inkscape:version="0.92.1 r15371">
  <sodipodi:namedview
     id="base"
     pagecolor="#3e3e3e"
     bordercolor="#666666"
     borderopacity="1.0"
     inkscape:pageopacity="0"
     inkscape:pageshadow="2"
     inkscape:zoom="5.6880335"
     inkscape:cx="20.122854"
     inkscape:cy="27.186666"
     inkscape:document-units="mm"
     inkscape:current-layer="layer5"
     showgrid="false"
     fit-margin-top="0"
     fit-margin-left="0"
     fit-margin-right="0"
     fit-margin-bottom="0"
     showguides="true"
     inkscape:guide-bbox="true"
     inkscape:window-width="1920"
     inkscape:window-height="1027"
     inkscape:window-x="-8"
     inkscape:window-y="-8"
     inkscape:window-maximized="1"
     inkscape:lockguides="false">
    <sodipodi:guide
       id="guide4810"
       position="11.207102,-2.0298509"
       orientation="26.4583,0"
       inkscape:locked="false" />
    <sodipodi:guide
       id="guide4812"
       position="-2.0220977,11.199349"
       orientation="0,26.4583"
       inkscape:locked="false" />
  </sodipodi:namedview>
  <defs
     id="defs2" />
  <metadata
     id="metadata5">
    <rdf:RDF>
      <cc:Work
         rdf:about="">
        <dc:format>image/svg+xml</dc:format>
        <dc:type
           rdf:resource="http://purl.org/dc/dcmitype/StillImage" />
        <dc:title></dc:title>
      </cc:Work>
    </rdf:RDF>
  </metadata>
  <g
     transform="translate(-9.7925202,-3.261117)"
     inkscape:label="Livello 4"
     id="layer5"
     inkscape:groupmode="layer">
    <path
       id="path4853"
       transform="matrix(0.26458333,0,0,0.26458333,7.7704225,1.2328173)"
       style="fill:#ffffff;fill-opacity:1;stroke:#000000;stroke-width:0;stroke-linecap:butt;stroke-linejoin:miter;stroke-miterlimit:4;stroke-dasharray:none;stroke-opacity:1"
       d="m 50.007812,7.6660156 -3.277343,5.4707034 c -7.443258,0.65352 -14.25157,3.513784 -19.775391,7.917969 l -0.02344,-0.04102 -7.521485,-0.28711 0.962891,7.095704 c -4.019645,5.361758 -6.614512,11.851655 -7.232422,18.908203 l -5.4980469,3.292969 5.4941409,3.251953 c 0.662896,7.543673 3.593407,14.435715 8.099609,19.998047 l -0.287109,7.511718 7.138672,-0.96875 c 5.309031,3.908355 11.6975,6.433087 18.636718,7.042969 L 50,92.328125 53.234375,86.863281 C 60.240816,86.256318 66.688707,83.698946 72.03125,79.734375 L 79.125,80.697266 78.837891,73.181641 C 83.307732,67.628903 86.210046,60.762405 86.865234,53.25 l 5.439454,-3.21875 -5.441407,-3.259766 C 86.310869,40.386168 84.141193,34.463951 80.759766,29.419922 l 0.03711,-0.0078 1.011719,-7.449218 -7.34375,0.28125 C 68.702851,17.161356 61.349572,13.844527 53.246094,13.138672 Z M 46.912109,18.146484 c -1.515533,6.08244 -3.985538,11.486762 -7.427734,15.996094 -3.726572,-2.404122 -7.173508,-5.159255 -9.988281,-8.703125 4.811063,-4.022004 10.818721,-6.661111 17.416015,-7.292969 z m 6.175782,0 c 7.204196,0.689984 13.707966,3.768482 18.714843,8.433594 -2.868647,3.641786 -6.402867,6.449971 -10.224609,8.900391 -4.007578,-4.758339 -6.822318,-10.63997 -8.490234,-17.333985 z m -27.472657,11.140625 0.0293,0.0059 c 3.907777,2.035225 7.275225,5.147605 10.423828,8.701172 -4.643343,4.511263 -10.589409,7.740994 -17.949218,9.279297 0.577116,-6.833893 3.303337,-13.053006 7.496093,-17.986329 z m 49.832032,1.3125 c 3.590173,4.704338 5.906654,10.434104 6.433593,16.673829 -6.704054,-1.401241 -12.244928,-4.195985 -16.689453,-8.091797 3.101307,-3.494058 6.421,-6.555081 10.25586,-8.582032 z M 50,34.410156 C 58.61007,34.410066 65.589934,41.38993 65.589844,50 65.589934,58.61007 58.61007,65.589934 50,65.589844 41.38993,65.589934 34.410066,58.61007 34.410156,50 34.410066,41.38993 41.38993,34.410066 50,34.410156 Z M 18.119141,52.726562 c 6.536597,1.366984 11.968456,4.064819 16.355468,7.816407 -2.437506,3.803059 -5.231965,7.32152 -8.845703,10.183593 -4.199748,-4.935838 -6.932082,-11.159387 -7.509765,-18 z m 63.761718,0 c -0.574311,6.800685 -3.277419,12.992062 -7.435547,17.914063 -3.609707,-2.858416 -6.40038,-6.372186 -8.835937,-10.169922 4.372267,-3.714098 9.776732,-6.385908 16.271484,-7.744141 z m -19.93164,11.394532 c 3.515045,3.125105 6.591814,6.467945 8.609375,10.341797 l 0.0098,0.04687 c -4.81924,4.05016 -10.848193,6.70746 -17.470703,7.34375 1.719094,-6.879847 4.656997,-12.902166 8.851563,-17.732422 z m -23.822266,0.08594 c 4.154312,4.815715 7.066585,10.807808 8.775391,17.646485 -6.587434,-0.63292 -12.586108,-3.267266 -17.392578,-7.28125 l 0.0039,-0.02148 c 2.017995,-3.874685 5.097289,-7.218067 8.613281,-10.34375 z M 50,37.652344 A 12.348069,12.348069 0 0 0 37.652344,50 12.348069,12.348069 0 0 0 50,62.347656 12.348069,12.348069 0 0 0 62.347656,50 12.348069,12.348069 0 0 0 50,37.652344 Z m 0,5.638672 A 6.7082022,6.7082022 0 0 1 56.708984,50 6.7082022,6.7082022 0 0 1 50,56.708984 6.7082022,6.7082022 0 0 1 43.291016,50 6.7082022,6.7082022 0 0 1 50,43.291016 Z"
       inkscape:connector-curvature="0" />
  </g>
</svg>
