<?xml version="1.0" encoding="UTF-8" standalone="no"?>
<!-- Created with Inkscape (http://www.inkscape.org/) -->

<svg
   xmlns:dc="http://purl.org/dc/elements/1.1/"
   xmlns:cc="http://creativecommons.org/ns#"
   xmlns:rdf="http://www.w3.org/1999/02/22-rdf-syntax-ns#"
   xmlns:svg="http://www.w3.org/2000/svg"
   xmlns="http://www.w3.org/2000/svg"
   xmlns:sodipodi="http://sodipodi.sourceforge.net/DTD/sodipodi-0.dtd"
   xmlns:inkscape="http://www.inkscape.org/namespaces/inkscape"
   width="20.844126mm"
   height="20.033922mm"
   viewBox="0 0 20.844126 20.033921"
   version="1.1"
   id="svg8"
   inkscape:version="0.92.1 r15371">
  <sodipodi:namedview
     id="base"
     pagecolor="#3e3e3e"
     bordercolor="#666666"
     borderopacity="1.0"
     inkscape:pageopacity="0"
     inkscape:pageshadow="2"
     inkscape:zoom="1.6167588"
     inkscape:cx="54.151508"
     inkscape:cy="54.562301"
     inkscape:document-units="mm"
     inkscape:current-layer="layer7"
     showgrid="false"
     fit-margin-top="0"
     fit-margin-left="0"
     fit-margin-right="0"
     fit-margin-bottom="0"
     showguides="true"
     inkscape:guide-bbox="true"
     inkscape:window-width="1920"
     inkscape:window-height="1027"
     inkscape:window-x="-8"
     inkscape:window-y="-8"
     inkscape:window-maximized="1"
     inkscape:lockguides="false">
    <sodipodi:guide
       id="guide4948"
       position="10.350061,-3.0204863"
       orientation="26.4583,0"
       inkscape:locked="false" />
    <sodipodi:guide
       id="guide4950"
       position="-2.8791392,10.208714"
       orientation="0,26.4583"
       inkscape:locked="false" />
  </sodipodi:namedview>
  <defs
     id="defs2" />
  <metadata
     id="metadata5">
    <rdf:RDF>
      <cc:Work
         rdf:about="">
        <dc:format>image/svg+xml</dc:format>
        <dc:type
           rdf:resource="http://purl.org/dc/dcmitype/StillImage" />
        <dc:title></dc:title>
      </cc:Work>
    </rdf:RDF>
  </metadata>
  <g
     inkscape:label="Livello 6"
     id="layer7"
     inkscape:groupmode="layer"
     style="display:inline"
     transform="translate(-2.8791391,-3.403926)">
    <path
       id="path4981"
       style="fill:#ffffff;fill-opacity:1;stroke:#000000;stroke-width:0;stroke-linecap:butt;stroke-linejoin:miter;stroke-miterlimit:4;stroke-dasharray:none;stroke-opacity:1"
       d="m 19.175399,9.2338849 c 0.607199,0.088309 0.429129,0.69991 0.528079,1.1088641 0.506707,2.094308 7.914463,-3.3882923 1.261545,-1.5789429 L 20.065336,7.8636026 V 6.9737345 c 0.494182,0.1269293 0.946475,0.058377 1.400949,0 L 23.665633,4.7749023 V 3.4039265 h -2.005045 l -2.802413,2.2298381 c -0.429776,1.0161633 -1.29172,1.1314959 -3.027206,-0.572575 1.616426,-3.2283312 -3.601402,0.3950603 -1.46296,1.1761558 0.626193,0.2287256 1.475043,0.3003985 0.941299,1.104445 -2.793973,3.1017566 -6.4976432,5.2918246 -9.4644025,7.0818346 1.640151,0.718086 3.2321595,1.725874 4.7109035,2.864238 0.737613,-0.418127 1.532065,-0.95941 2.398415,-1.656478 -0.480511,-0.380823 -0.991516,-0.838653 -1.467467,-1.251305 l 5.694557,-4.5905391 c 0.730126,-0.031027 1.386248,0.094159 1.994085,-0.555656 z M 18.440295,7.9452514 c 2e-5,0.564918 -0.457942,1.0228794 -1.022859,1.0228593 -0.564918,1.99e-5 -1.02288,-0.4579416 -1.02286,-1.0228593 -2e-5,-0.564918 0.457942,-1.0228794 1.02286,-1.0228596 0.564917,-2.01e-5 1.022879,0.4579416 1.022859,1.0228596 z M 13.562741,19.940793 c 0.819333,0.83791 1.605915,1.73342 2.358139,2.676924 1.624185,0.626831 3.38502,0.923414 5.158968,0.787818 -0.128837,-1.499065 -0.668688,-3.00407 -1.806344,-4.353176 -0.765343,0.0048 -1.926325,-0.490699 -3.261832,-1.300422 -0.836613,0.668711 -1.650868,1.404495 -2.448931,2.188856 z m 2.435321,-8.54031 4.729988,3.023142 c -3.803268,1.665135 -7.192109,4.576907 -10.07597,8.194092 -1.6241852,0.626831 -3.3850204,0.923414 -5.158968,0.787818 0.128837,-1.499065 0.6686878,-3.00407 1.8063443,-4.353176 1.5683929,0.0098 4.7982777,-2.08126 7.7867467,-4.672279 L 13.625836,13.229133 Z M 2.9367715,3.4039265 v 1.3709758 l 2.1993489,2.1988322 c 0.4544732,0.058377 0.9067663,0.1269293 1.4009481,0 V 7.8636026 L 5.637382,8.7638061 C -1.0155364,6.9544567 6.3922192,12.437057 6.8989267,10.342749 6.9978711,9.9337949 6.8198094,9.3221941 7.4270059,9.2338849 8.034843,9.8836997 8.5375429,9.8096545 9.1963376,9.8479775 L 10.54931,10.874891 C 11.355477,10.284674 12.170433,9.6915784 12.922469,8.9930998 12.300192,8.3690692 11.402746,7.7305735 11.119218,7.1065429 10.95609,6.5109677 11.625497,6.4757995 12.234395,6.2373454 14.354266,5.4071694 9.1550095,1.8328584 10.771436,5.0611896 9.0359496,6.7652605 8.1740051,6.6499279 7.74423,5.6337646 L 4.9418171,3.4039265 Z M 9.184969,6.9223918 c 0.564918,-1.98e-5 1.022879,0.4579416 1.022859,1.0228596 2e-5,0.5649177 -0.4579413,1.0228792 -1.022859,1.0228593 C 8.6200511,8.9681308 8.1620896,8.5101694 8.1621095,7.9452514 8.1620893,7.3803334 8.6200511,6.9223717 9.184969,6.9223918 Z"
       inkscape:connector-curvature="0"
       sodipodi:nodetypes="cccccccccccsccccccccccccccccccccccccccccccccscccccsccccccccc" />
  </g>
</svg>
